<svg width="30" height="30" viewBox="0 0 30 31" fill="none" xmlns="http://www.w3.org/2000/svg">
<g id="Xnix/Line/Call Ringing">
<path id="Vector" d="M17.6263 6.39844C21.395 7.65768 23.1241 10.8261 23.75 12.4204M16.25 9.21471C18.9373 9.75705 20.5599 12.0128 21.0129 13.8984M8.8678 8.95666C8.4662 9.08577 8.13211 9.36485 7.18991 10.3582C6.51499 11.0699 6.32946 11.4279 6.26471 12.1437C6.17269 13.1612 6.51293 14.4481 7.26746 15.9364C7.58674 16.5662 7.72986 16.8104 8.13468 17.4155C9.66259 19.6994 11.6689 21.518 14.0425 22.7706C15.3876 23.4805 16.5249 23.8437 17.5618 23.8944C18.2949 23.9303 18.9467 23.7241 19.4373 23.301C19.4948 23.2514 19.8557 22.89 20.2393 22.498C20.8744 21.849 20.9486 21.7618 21.0699 21.5219C21.308 21.0509 21.3099 20.6315 21.0763 20.1516C20.9507 19.8934 20.9185 19.8579 19.789 18.7322C18.6927 17.6394 18.6179 17.5715 18.3943 17.466C17.9155 17.2402 17.4224 17.2637 16.9565 17.5347C16.8782 17.5802 16.5219 17.9052 16.1646 18.2571L15.7607 18.6548C15.6143 18.799 15.3892 18.8307 15.2037 18.7332C13.8294 18.0113 12.0254 16.202 11.357 14.8751C11.2855 14.7331 11.3115 14.5635 11.4216 14.4528L11.8413 14.0313C12.4851 13.3847 12.64 13.19 12.7445 12.8956C12.8856 12.4983 12.8586 12.1165 12.6611 11.7158C12.5592 11.5092 12.4536 11.3945 11.3916 10.3369C10.1829 9.13303 10.0855 9.05201 9.71724 8.94413C9.49314 8.87848 9.0927 8.88437 8.8678 8.95666Z" stroke="#4B4B4D" stroke-width="1.5" stroke-linecap="round"/>
</g>
</svg>
