<svg width="10" height="10" viewBox="0 0 23 26" fill="none" xmlns="http://www.w3.org/2000/svg">
<path d="M11.5 13.1484C13.1019 13.1091 14.43 12.5622 15.4844 11.5078C16.5388 10.4534 17.0856 9.12531 17.125 7.52344C17.0856 5.92156 16.5388 4.59344 15.4844 3.53906C14.43 2.48469 13.1019 1.93781 11.5 1.89844C9.89812 1.93781 8.57 2.48469 7.51562 3.53906C6.46125 4.59344 5.91437 5.92156 5.875 7.52344C5.91437 9.12531 6.46125 10.4534 7.51562 11.5078C8.57 12.5622 9.89812 13.1091 11.5 13.1484ZM11.5 15.0234C9.37125 14.9647 7.60375 14.2322 6.1975 12.8259C4.79125 11.4197 4.05875 9.65219 4 7.52344C4.05875 5.39469 4.79125 3.62719 6.1975 2.22094C7.60375 0.814687 9.37125 0.0821875 11.5 0.0234375C13.6287 0.0821875 15.3963 0.814687 16.8025 2.22094C18.2088 3.62719 18.9412 5.39469 19 7.52344C18.9412 9.65219 18.2088 11.4197 16.8025 12.8259C15.3963 14.2322 13.6287 14.9647 11.5 15.0234ZM20.875 24.3984V21.5859C20.8556 20.7853 20.5822 20.1212 20.0547 19.5938C19.5272 19.0663 18.8631 18.7928 18.0625 18.7734H4.9375C4.13688 18.7928 3.47281 19.0663 2.94531 19.5938C2.41781 20.1212 2.14437 20.7853 2.125 21.5859V24.3984C2.125 24.6722 2.03719 24.8969 1.86156 25.0725C1.68594 25.2481 1.46125 25.3359 1.1875 25.3359C0.91375 25.3359 0.689063 25.2481 0.513438 25.0725C0.337813 24.8969 0.25 24.6722 0.25 24.3984V21.5859C0.289375 20.2578 0.748437 19.1544 1.62719 18.2756C2.50594 17.3969 3.60938 16.9378 4.9375 16.8984H18.0625C19.3906 16.9378 20.4941 17.3969 21.3728 18.2756C22.2516 19.1544 22.7106 20.2578 22.75 21.5859V24.3984C22.75 24.6722 22.6622 24.8969 22.4866 25.0725C22.3109 25.2481 22.0862 25.3359 21.8125 25.3359C21.5388 25.3359 21.3141 25.2481 21.1384 25.0725C20.9628 24.8969 20.875 24.6722 20.875 24.3984Z" fill="#4B4B4D" stroke-width="1.5" stroke-linecap="round"/>
</svg>
